#!OML:ASF Y:\EmotionMaleHayes\Project 1\Capture day 1\Session 1\Male1.ASF
:FULLY-SPECIFIED
:DEGREES
1797
root 21.0695 17.7887 -8.81401 555.428 245.21 170.179
lowerback 8.72009 2.40636 -9.64407
upperback 5.79208 2.31745 -2.46132
thorax 0.904924 0.858359 2.6443
lowerneck -23.1655 5.18994 6.46285
upperneck 25.1067 4.01596 2.46556
head 12.2627 2.69311 0.542632
rclavicle 1.82882e-014 -1.11319e-014
rhumerus 43.045 12.8252 -25.3066
rradius 42.6214
rwrist -5.42654
rhand -7.1736 -29.4654
rfingers 7.12502
rthumb 18.7039 -58.5862
lclavicle 1.82882e-014 -1.11319e-014
lhumerus 39.3051 -8.71416 25.1838
lradius 39.7157
lwrist 8.71605
lhand -17.885 -25.7479
lfingers 7.12502
lthumb 8.38129 4.06584
rfemur -3.55026 -1.42545 11.1503
rtibia 19.5597
rfoot -6.00592 0.338232
rtoes 4.26386
lfemur -1.65739 3.34105 -14.5336
ltibia 15.9412
lfoot -17.0136 15.3525
ltoes -0.241184
1798
root 20.9935 17.798 -8.75126 555.416 245.232 170.1
lowerback 8.57092 2.39305 -9.7812
upperback 5.83399 2.3094 -2.5638
thorax 1.0331 0.844468 2.61896
lowerneck -23.3165 5.10213 6.50148
upperneck 25.2058 3.82476 2.57679
head 12.3277 2.62864 0.550938
rclavicle 3.33958e-014 -2.70347e-014
rhumerus 43.1784 12.4935 -25.7252
rradius 42.668
rwrist -5.01279
rhand -7.05291 -29.7755
rfingers 7.12502
rthumb 18.8199 -58.8851
lclavicle 3.33958e-014 -2.70347e-014
lhumerus 39.5469 -8.67872 25.1911
lradius 39.7642
lwrist 9.11389
lhand -17.9233 -25.5288
lfingers 7.12502
lthumb 8.34437 4.28638
rfemur -3.90072 -1.64483 11.519
rtibia 18.8386
rfoot -6.04221 0.58607
rtoes 3.92824
lfemur -1.10793 3.19647 -14.5999
ltibia 15.8004
lfoot -17.0997 15.3257
ltoes -0.784793
1799
root 20.9156 17.8047 -8.69273 555.438 245.23 169.949
lowerback 8.57344 2.31908 -9.95528
upperback 5.80412 2.1975 -2.57843
thorax 1.01016 0.786175 2.70881
lowerneck -23.407 5.06573 6.29408
upperneck 25.3459 3.78431 2.75208
head 12.3905 2.61609 0.648808
rclavicle 4.53229e-014 -4.6118e-014
rhumerus 43.3551 12.7082 -25.3902
rradius 42.7764
rwrist -5.08846
rhand -7.2202 -30.0695
rfingers 7.12502
rthumb 18.659 -59.1946
lclavicle 4.53229e-014 -4.6118e-014
lhumerus 39.5178 -8.5395 25.4329
lradius 39.7417
lwrist 9.29599
lhand -17.662 -25.6563
lfingers 7.12502
lthumb 8.59657 4.14867
rfemur -4.19881 -1.63871 12.0557
rtibia 18.0597
rfoot -6.23619 0.494433
rtoes 0.683324
lfemur -0.543114 3.20456 -14.553
ltibia 15.6783
lfoot -16.9757 15.2673
ltoes -1.60586
1800
root 20.8366 17.8085 -8.63294 555.097 245.222 170.244
lowerback 8.52072 2.21626 -10.327
upperback 5.77802 2.042 -2.57754
thorax 1.02371 0.699098 2.92899
lowerneck -23.4951 5.07953 6.00086
upperneck 25.436 3.87379 2.85812
head 12.4328 2.64294 0.756297
rclavicle -1.51076e-014 3.18055e-014
rhumerus 43.686 12.9469 -24.9664
rradius 43.0544
rwrist -5.27915
rhand -7.20357 -30.2562
rfingers 7.12502
rthumb 18.675 -59.3797
lclavicle -1.51076e-014 3.18055e-014
lhumerus 39.4028 -8.34174 25.7433
lradius 39.7336
lwrist 9.53606
lhand -17.406 -25.5693
lfingers 7.12502
lthumb 8.84362 4.22537
rfemur -4.5121 -1.91021 12.3507
rtibia 17.3459
rfoot -6.41293 0.500688
rtoes -3.93586
lfemur -0.0796267 3.01622 -14.7991
ltibia 15.6532
lfoot -16.9441 15.2786
ltoes -2.23095
1801
root 20.7552 17.8129 -8.57329 554.791 245.197 170.491
lowerback 8.45878 2.16888 -10.5236
upperback 5.67332 1.96682 -2.70564
thorax 0.9575 0.665086 2.91036
lowerneck -23.0365 5.03065 6.2505
upperneck 25.2668 3.79427 2.71885
head 12.2858 2.60813 0.633192
rclavicle -4.77083e-015 7.95139e-015
rhumerus 43.6441 13.2741 -24.7174
rradius 43.278
rwrist -5.46927
rhand -7.5704 -30.0392
rfingers 7.12502
rthumb 18.3222 -59.1963
lclavicle -4.77083e-015 7.95139e-015
lhumerus 39.4466 -8.46638 25.8237
lradius 39.8053
lwrist 9.91129
lhand -17.1991 -25.3065
lfingers 7.12502
lthumb 9.0432 4.47964
rfemur -4.85552 -2.2785 12.6241
rtibia 16.6943
rfoot -6.31239 0.760554
rtoes -5.18717
lfemur 0.406466 2.7529 -15.0354
ltibia 15.5684
lfoot -16.8413 15.4155
ltoes -3.83528
1802
root 20.6713 17.8162 -8.51187 554.703 245.151 170.456
lowerback 8.37096 2.12395 -10.6127
upperback 5.5967 1.90881 -2.78565
thorax 0.933388 0.639292 2.88228
lowerneck -22.8366 4.97031 6.23153
upperneck 25.2859 3.69604 2.82825
head 12.2506 2.57587 0.655453
rclavicle -4.92986e-014 6.52014e-014
rhumerus 43.6522 13.4288 -24.7842
rradius 43.1056
rwrist -5.17047
rhand -8.01345 -29.4376
rfingers 7.12502
rthumb 17.8959 -58.6342
lclavicle -4.92986e-014 6.52014e-014
lhumerus 39.6898 -8.5428 26.139
lradius 39.6715
lwrist 10.1634
lhand -17.0414 -25.1156
lfingers 7.12502
lthumb 9.19543 4.66395
rfemur -5.18977 -2.27177 13.0601
rtibia 15.9099
rfoot -6.05721 0.874152
rtoes -2.60709
lfemur 1.0135 2.60809 -15.1107
ltibia 15.2866
lfoot -16.4099 15.6719
ltoes -6.40873
1803
root 20.5848 17.8161 -8.45061 554.527 245.182 170.564
lowerback 8.14212 2.0798 -10.9072
upperback 5.70262 1.86962 -2.78415
thorax 1.17292 0.596261 3.0556
lowerneck -23.2317 4.95067 5.96755
upperneck 25.3751 3.68149 2.99982
head 12.3515 2.57085 0.772981
rclavicle -5.64548e-014 3.18055e-014
rhumerus 44.004 13.1265 -25.0643
rradius 42.8159
rwrist -4.60766
rhand -8.25802 -29.3489
rfingers 7.12502
rthumb 17.6606 -58.5668
lclavicle -5.64548e-014 3.18055e-014
lhumerus 40.0167 -8.22845 26.565
lradius 39.5319
lwrist 10.3507
lhand -17.157 -24.9687
lfingers 7.12502
lthumb 9.08384 4.81566
rfemur -5.69116 -2.35991 13.5115
rtibia 15.5789
rfoot -6.24682 0.883093
rtoes -6.19694
lfemur 1.54773 2.47288 -15.2756
ltibia 15.1192
lfoot -16.0814 15.8767
ltoes -8.44134
1804
root 20.5011 17.8161 -8.39589 554.372 245.199 170.689
lowerback 7.99607 2.08561 -11.0967
upperback 5.61746 1.87996 -2.88231
thorax 1.16241 0.60149 3.05905
lowerneck -22.888 4.81352 5.86154
upperneck 25.1698 3.49981 3.20266
head 12.1948 2.50245 0.821518
rclavicle 4.77083e-015 9.06458e-014
rhumerus 43.9898 12.9361 -25.5858
rradius 42.7901
rwrist -4.06688
rhand -8.26758 -30.1017
rfingers 7.12502
rthumb 17.6514 -59.3205
lclavicle 4.77083e-015 9.06458e-014
lhumerus 40.3846 -8.2659 26.9028
lradius 39.3701
lwrist 10.4291
lhand -17.267 -24.9613
lfingers 7.12502
lthumb 8.97771 4.82772
rfemur -6.17465 -2.017 13.9763
rtibia 14.9825
rfoot -6.3822 0.63366
rtoes -6.07182
lfemur 1.94854 2.29112 -15.385
ltibia 15.1124
lfoot -16.0189 15.9311
ltoes -9.44949
1805
root 20.4183 17.8171 -8.3399 554.249 245.164 170.728
lowerback 8.01632 2.17695 -11.0648
upperback 5.43391 1.98515 -3.04343
thorax 0.948164 0.674012 2.86233
lowerneck -22.5075 4.54826 5.74847
upperneck 25.1174 3.10094 3.51335
head 12.0894 2.35146 0.877251
rclavicle -5.00937e-014 -3.18055e-014
rhumerus 43.6294 13.2262 -25.0068
rradius 42.8945
rwrist -4.6557
rhand -8.35013 -30.7902
rfingers 7.12502
rthumb 17.5719 -60.0161
lclavicle -5.00937e-014 -3.18055e-014
lhumerus 41.075 -8.54611 27.363
lradius 39.0022
lwrist 10.324
lhand -17.1958 -24.9205
lfingers 7.12502
lthumb 9.0464 4.86554
rfemur -6.62682 -2.04656 14.411
rtibia 14.4081
rfoot -6.30846 0.824935
rtoes -5.61512
lfemur 2.443 2.18088 -15.4228
ltibia 15.0132
lfoot -15.9345 15.884
ltoes -10.164
1806
root 20.3304 17.8174 -8.27844 553.668 245.154 171.23
lowerback 8.00056 2.1389 -11.3951
upperback 5.389 1.91008 -3.12567
thorax 0.916719 0.63182 2.96337
lowerneck -22.7705 4.50613 5.65219
upperneck 25.4182 3.02229 3.57559
head 12.2553 2.32138 0.916101
rclavicle -2.06736e-014 2.38542e-014
rhumerus 43.755 13.2518 -25.0162
rradius 42.9618
rwrist -4.85231
rhand -8.32655 -30.9512
rfingers 7.12502
rthumb 17.5946 -60.1751
lclavicle -2.06736e-014 2.38542e-014
lhumerus 41.273 -8.50814 27.5393
lradius 38.9573
lwrist 10.4303
lhand -17.2841 -24.7218
lfingers 7.12502
lthumb 8.96118 5.0679
rfemur -6.95511 -2.27868 14.5847
rtibia 13.7861
rfoot -6.21327 1.36846
rtoes -6.84118
lfemur 3.08188 2.06191 -15.7454
ltibia 14.779
lfoot -15.9698 15.8247
ltoes -10.4269
1807
root 20.2428 17.816 -8.21888 552.85 245.077 172.05
lowerback 7.88927 2.03553 -11.9234
upperback 5.43501 1.75923 -3.12607
thorax 1.04158 0.534746 3.26728
lowerneck -23.1384 4.47892 5.32923
upperneck 25.6124 3.0723 3.57344
head 12.3946 2.31768 0.99017
rclavicle -1.74931e-014 9.54166e-015
rhumerus 44.0438 13.0197 -25.378
rradius 43.1056
rwrist -4.87662
rhand -8.29692 -30.8103
rfingers 7.12502
rthumb 17.6231 -60.0316
lclavicle -1.74931e-014 9.54166e-015
lhumerus 41.3199 -8.30864 27.6773
lradius 39.059
lwrist 10.6423
lhand -17.4752 -24.6302
lfingers 7.12502
lthumb 8.77683 5.16731
rfemur -7.17324 -2.01642 14.6876
rtibia 12.8669
rfoot -6.1794 1.46108
rtoes -5.88523
lfemur 3.632 1.88029 -16.2212
ltibia 14.5364
lfoot -16.0218 15.8418
ltoes -10.5115
1808
root 20.1584 17.8119 -8.15727 552.16 245.021 172.768
lowerback 7.7969 2.01048 -12.1867
upperback 5.40175 1.71807 -3.27565
thorax 1.06475 0.508595 3.25942
lowerneck -23.1539 4.38097 5.21398
upperneck 25.5979 2.95046 3.65999
head 12.387 2.26427 1.02067
rclavicle -1.74931e-014 -2.70347e-014
rhumerus 44.1042 12.8502 -25.5903
rradius 43.1103
rwrist -4.91295
rhand -8.21553 -30.6426
rfingers 7.12502
rthumb 17.7014 -59.8569
lclavicle -1.74931e-014 -2.70347e-014
lhumerus 41.6349 -8.36932 27.69
lradius 39.1297
lwrist 10.7835
lhand -17.4564 -24.5753
lfingers 7.12502
lthumb 8.79498 5.22147
rfemur -7.76931 -2.14841 14.7944
rtibia 12.5357
rfoot -5.55348 1.49402
rtoes 1.1547
lfemur 4.09974 1.81641 -16.652
ltibia 14.4415
lfoot -16.1303 15.6952
ltoes -9.88236
1809
root 20.0676 17.8059 -8.09077 551.503 245.084 173.376
lowerback 7.74615 2.00732 -12.3404
upperback 5.30398 1.69871 -3.5146
thorax 0.996464 0.504135 3.0946
lowerneck -23.0952 4.32787 5.29642
upperneck 25.646 2.81467 3.75361
head 12.3959 2.22449 1.01881
rclavicle 1.43125e-014 7.4743e-014
rhumerus 44.2285 13.0004 -25.4718
rradius 43.0465
rwrist -5.0519
rhand -8.19249 -30.8089
rfingers 7.12502
rthumb 17.7236 -60.0212
lclavicle 1.43125e-014 7.4743e-014
lhumerus 41.7256 -8.63036 27.3878
lradius 39.4603
lwrist 10.9767
lhand -17.4036 -24.4633
lfingers 7.12502
lthumb 8.8459 5.3313
rfemur -8.50222 -2.96459 14.872
rtibia 12.5938
rfoot -5.46785 2.61772
rtoes -0.0810097
lfemur 4.74764 1.80818 -17.0549
ltibia 14.2939
lfoot -16.3086 15.4347
ltoes -8.94328
1810
root 19.9699 17.799 -8.02877 551.027 245.09 173.752
lowerback 7.56771 1.93841 -12.6451
upperback 5.37764 1.62289 -3.55142
thorax 1.18344 0.445335 3.23206
lowerneck -23.4229 4.36334 5.35251
upperneck 25.7367 2.86323 3.60535
head 12.4998 2.23585 0.972096
rclavicle 2.38542e-014 4.13472e-014
rhumerus 44.7282 13.0347 -25.2241
rradius 43.0253
rwrist -5.29553
rhand -8.10117 -30.9146
rfingers 7.12502
rthumb 17.8115 -60.1189
lclavicle 2.38542e-014 4.13472e-014
lhumerus 41.6074 -8.58782 27.1194
lradius 39.9205
lwrist 11.2601
lhand -17.5424 -24.3663
lfingers 7.12502
lthumb 8.7119 5.43388
rfemur -8.90769 -3.14626 15.1357
rtibia 12.1025
rfoot -5.50174 3.37361
rtoes -2.97433
lfemur 5.43392 1.70203 -17.2769
ltibia 14.085
lfoot -16.3621 15.3045
ltoes -8.63652
1811
root 19.8714 17.7905 -7.97353 550.416 244.982 174.308
lowerback 7.3669 1.87417 -13.0602
upperback 5.46199 1.5545 -3.53771
thorax 1.39265 0.384533 3.48187
lowerneck -23.6362 4.39205 5.35761
upperneck 25.7169 2.95764 3.39218
head 12.5364 2.25138 0.911512
rclavicle -1.27222e-014 1.90833e-014
rhumerus 45.1023 12.91 -25.1577
rradius 43.0491
rwrist -5.5443
rhand -7.88681 -30.5482
rfingers 7.12502
rthumb 18.0177 -59.7336
lclavicle -1.27222e-014 1.90833e-014
lhumerus 42.3168 -7.90645 28.2242
lradius 39.0452
lwrist 10.1319
lhand -17.42 -24.8825
lfingers 7.12502
lthumb 8.83009 4.91279
rfemur -9.22087 -2.79877 15.4122
rtibia 11.4673
rfoot -4.48041 3.0031
rtoes 0.645818
lfemur 6.02064 1.63276 -17.5018
ltibia 13.8654
lfoot -16.1644 15.2645
ltoes -9.47978
